<?xml version="1.0" encoding="utf-8" ?>
<svg xmlns="http://www.w3.org/2000/svg" xmlns:xlink="http://www.w3.org/1999/xlink" width="1024" height="1024">
	<path fill="#4682B4" d="M511.333 292.166C512.364 292.651 512.992 293.423 513.508 294.417C517.217 301.555 519.166 310.091 521.853 317.704C525.221 327.245 529.523 336.437 534.128 345.436C568.619 412.836 626.073 462.568 692.428 497.327C685.008 495.792 676.608 496.177 669.049 496.108Q648.369 496.015 627.69 496.256L511.25 496.852L401.33 496.807Q380.814 496.496 360.296 496.482C349.911 496.452 339.599 496.261 329.25 497.324C334.975 494.981 340.574 492.507 346.054 489.631Q349.713 487.718 353.323 485.716Q356.934 483.713 360.495 481.623Q364.055 479.533 367.563 477.356Q371.072 475.179 374.526 472.917Q377.979 470.655 381.377 468.309Q384.774 465.963 388.113 463.535Q391.452 461.106 394.731 458.596Q398.009 456.087 401.225 453.498Q404.441 450.908 407.592 448.241Q410.744 445.574 413.829 442.83Q416.914 440.087 419.931 437.268Q422.948 434.45 425.896 431.558Q428.843 428.667 431.718 425.704Q434.593 422.741 437.395 419.709Q440.197 416.676 442.924 413.576Q445.651 410.476 448.301 407.31Q450.951 404.144 453.522 400.914Q456.094 397.684 458.586 394.392Q461.077 391.1 463.488 387.747Q465.898 384.395 468.225 380.985Q470.553 377.575 472.796 374.109Q475.039 370.643 477.197 367.123Q479.354 363.602 481.425 360.031Q483.496 356.459 485.478 352.837Q487.461 349.215 489.354 345.546Q491.247 341.877 493.05 338.163Q494.853 334.449 496.564 330.691Q498.275 326.934 499.894 323.136Q501.512 319.337 503.037 315.501Q504.562 311.664 505.993 307.791Q507.423 303.918 508.759 300.011Q510.094 296.104 511.333 292.166Z"/>
	<path fill="#4682B4" d="M389.251 526.748L694.362 527.04C689.566 529.558 684.49 531.644 679.622 534.041Q668.597 539.589 658.014 545.939C617.571 570.257 581.506 605.906 555.06 644.856C536.518 672.829 523.992 699.947 511.612 730.965C509.13 720.386 504.477 709.578 500.196 699.606C476.064 643.394 435.42 595.763 385.964 560.232Q374.123 551.64 361.539 544.18C351.532 538.361 341.23 533.18 331.429 526.991C338.604 527.429 345.977 526.927 353.173 526.853L389.251 526.748Z"/>
	<path fill="#4682B4" d="M186.692 525.708Q191.943 525.351 197.199 525.636C284.156 529.908 361.961 563.861 420.647 628.93C463.431 676.367 488.774 734.387 498.297 797.225C500.29 810.379 502.742 825.089 501.942 838.432C501.643 843.418 500.287 849.172 496.31 852.532C493.512 854.895 489.881 855.111 486.378 854.77C475.135 854.113 463.84 851.817 452.8 849.681C403.981 840.238 356.88 822.979 315.869 794.441Q312.348 792.007 308.889 789.487Q305.43 786.966 302.035 784.36Q298.64 781.754 295.311 779.064Q291.982 776.374 288.72 773.602Q285.459 770.83 282.269 767.978Q279.078 765.125 275.959 762.194Q272.84 759.263 269.795 756.255Q266.75 753.247 263.782 750.164Q260.813 747.081 257.922 743.925Q255.03 740.769 252.219 737.542Q249.407 734.315 246.677 731.019Q243.947 727.723 241.3 724.359Q238.653 720.996 236.09 717.568Q233.528 714.14 231.051 710.649Q228.575 707.158 226.187 703.607Q223.798 700.055 221.499 696.445Q219.2 692.835 216.991 689.169Q214.783 685.503 212.666 681.783Q210.55 678.062 208.527 674.291Q206.504 670.519 204.575 666.698Q202.647 662.877 200.814 659.009Q198.982 655.141 197.246 651.229Q195.511 647.317 193.873 643.362Q192.236 639.408 190.697 635.414Q189.159 631.42 187.721 627.389Q186.282 623.358 184.945 619.292Q183.607 615.226 182.372 611.129Q181.136 607.031 180.003 602.904Q178.87 598.776 177.84 594.622Q176.81 590.468 175.884 586.289Q174.958 582.11 174.136 577.91Q173.315 573.71 172.598 569.49C171.198 561.649 166.236 535.563 170.795 529.581C173.737 525.72 182.224 526.028 186.692 525.708Z"/>
	<defs>
		<linearGradient id="gradient_0" gradientUnits="userSpaceOnUse" x1="169.19702" y1="491.90433" x2="506.49994" y2="186.49188">
			<stop offset="0" stop-color="#4378B0"/>
			<stop offset="1" stop-color="#8AADB5"/>
		</linearGradient>
	</defs>
	<path fill="url(#gradient_0)" d="M478.772 169.684C479.081 169.648 479.39 169.609 479.699 169.577C485.092 169.015 491.194 168.928 495.493 172.732C499.417 176.206 500.677 181.574 501.048 186.595C502.126 201.212 499.626 217.368 497.282 231.817C487.644 291.229 464.297 344.915 425.089 390.805Q422.91 393.343 420.677 395.833Q418.445 398.324 416.159 400.766Q413.873 403.208 411.536 405.6Q409.198 407.992 406.81 410.334Q404.422 412.676 401.984 414.966Q399.546 417.256 397.06 419.493Q394.573 421.73 392.04 423.914Q389.506 426.097 386.926 428.226Q384.346 430.355 381.721 432.427Q379.096 434.5 376.427 436.516Q373.758 438.532 371.047 440.491Q368.335 442.449 365.582 444.349Q362.829 446.249 360.036 448.089Q357.243 449.929 354.412 451.709Q351.58 453.489 348.711 455.208Q345.841 456.927 342.936 458.584Q340.03 460.241 337.09 461.836Q334.15 463.43 331.176 464.961Q328.202 466.492 325.196 467.959Q322.19 469.426 319.154 470.828Q316.117 472.23 313.051 473.566Q309.985 474.903 306.891 476.174Q303.797 477.444 300.676 478.648Q297.556 479.852 294.41 480.989Q291.264 482.126 288.095 483.195Q284.926 484.264 281.734 485.265Q278.543 486.266 275.331 487.198Q272.118 488.131 268.887 488.994Q265.655 489.857 262.406 490.651Q259.157 491.445 255.892 492.168Q252.626 492.892 249.346 493.546Q246.066 494.2 242.772 494.783C226.096 497.768 209.449 498.575 192.619 499.908C186.838 500.173 177.761 500.74 172.933 497.079C170.628 495.332 169.829 492.705 169.479 489.938C167.893 477.382 171.914 463.043 174.587 450.75C186.393 396.467 206.053 345.798 240.176 301.529Q242.247 298.875 244.37 296.261Q246.492 293.647 248.665 291.075Q250.837 288.503 253.06 285.974Q255.282 283.444 257.553 280.959Q259.824 278.473 262.142 276.032Q264.461 273.59 266.827 271.195Q269.192 268.799 271.604 266.449Q274.016 264.1 276.472 261.798Q278.929 259.495 281.43 257.241Q283.931 254.987 286.475 252.782Q289.02 250.577 291.606 248.422Q294.193 246.266 296.821 244.161Q299.449 242.057 302.117 240.003Q304.785 237.95 307.493 235.949Q310.2 233.948 312.946 231.999Q315.692 230.051 318.475 228.156Q321.259 226.262 324.078 224.421Q326.898 222.581 329.752 220.796Q332.607 219.011 335.496 217.281Q338.384 215.552 341.306 213.878Q344.228 212.205 347.182 210.589Q350.135 208.973 353.12 207.415Q356.104 205.856 359.118 204.356Q362.132 202.856 365.175 201.414Q368.218 199.972 371.288 198.59Q374.358 197.208 377.454 195.886Q380.551 194.563 383.672 193.301Q386.793 192.039 389.939 190.838Q393.084 189.637 396.252 188.497Q399.42 187.357 402.61 186.278Q405.799 185.2 409.009 184.184Q412.219 183.168 415.448 182.214C436.249 176.144 457.309 172.441 478.772 169.684Z"/>
	<defs>
		<linearGradient id="gradient_1" gradientUnits="userSpaceOnUse" x1="508.03131" y1="197.64853" x2="863.35645" y2="481.13919">
			<stop offset="0" stop-color="#3F77B1"/>
			<stop offset="1" stop-color="#87ABB4"/>
		</linearGradient>
	</defs>
	<path fill="url(#gradient_1)" d="M535.014 169.614C547.341 168.827 560.256 171.012 572.34 173.374Q579.822 174.812 587.236 176.567Q594.65 178.321 601.982 180.39Q609.315 182.459 616.553 184.838Q623.791 187.217 630.921 189.901Q638.051 192.586 645.06 195.572Q652.07 198.557 658.946 201.838Q665.822 205.12 672.552 208.69Q679.282 212.261 685.854 216.115Q689.077 218 692.258 219.954Q695.439 221.909 698.578 223.932Q701.716 225.955 704.809 228.045Q707.902 230.136 710.949 232.294Q713.997 234.451 716.996 236.674Q719.996 238.897 722.946 241.185Q725.897 243.473 728.797 245.824Q731.697 248.176 734.546 250.59Q737.394 253.003 740.189 255.479Q742.985 257.954 745.726 260.489Q748.466 263.024 751.152 265.618Q753.837 268.213 756.465 270.865Q759.093 273.517 761.663 276.225Q764.233 278.933 766.743 281.697Q769.254 284.461 771.704 287.278Q774.153 290.096 776.541 292.966Q778.929 295.836 781.254 298.757Q783.58 301.678 785.841 304.65Q788.102 307.621 790.298 310.64Q792.494 313.66 794.624 316.726Q796.754 319.793 798.816 322.905Q800.879 326.017 802.874 329.173Q804.869 332.329 806.794 335.528Q808.72 338.727 810.575 341.967Q812.431 345.206 814.216 348.486Q816.001 351.765 817.714 355.083Q819.427 358.4 821.068 361.754Q822.709 365.108 824.276 368.496Q825.843 371.885 827.337 375.307Q828.83 378.729 830.249 382.182Q831.668 385.636 833.011 389.119Q834.355 392.603 835.622 396.115C840.661 410.071 844.415 424.348 847.96 438.742C850.294 448.22 858.499 489.202 852.46 496.991C850.138 499.986 846.383 500.126 842.918 500.469C831.472 500.413 819.935 498.732 808.577 497.43C755.9 491.396 712.045 478.776 666.951 450.145Q663.726 448.062 660.553 445.9Q657.38 443.738 654.261 441.5Q651.142 439.262 648.078 436.948Q645.014 434.634 642.008 432.246Q639.002 429.858 636.055 427.397Q633.108 424.936 630.222 422.404Q627.336 419.872 624.512 417.27Q621.689 414.669 618.93 411.999Q616.171 409.329 613.478 406.592Q610.786 403.856 608.16 401.054Q605.535 398.253 602.979 395.388Q600.423 392.523 597.938 389.597Q595.452 386.67 593.039 383.684Q590.626 380.698 588.287 377.654Q585.948 374.61 583.683 371.509Q581.419 368.409 579.231 365.254Q577.043 362.099 574.933 358.892Q572.822 355.684 570.791 352.426Q568.76 349.168 566.809 345.862Q564.858 342.555 562.988 339.202Q561.118 335.849 559.331 332.451Q557.544 329.053 555.84 325.612Q554.136 322.172 552.517 318.691Q550.898 315.21 549.364 311.69Q547.83 308.17 546.383 304.614Q544.936 301.058 543.576 297.468Q542.216 293.877 540.944 290.255Q539.672 286.632 538.489 282.98Q537.306 279.327 536.213 275.647Q535.119 271.967 534.116 268.261Q533.113 264.555 532.2 260.826Q531.288 257.096 530.467 253.346C527.161 238.445 516.822 187.849 525.32 175.302C527.829 171.597 530.77 170.439 535.014 169.614Z"/>
	<defs>
		<linearGradient id="gradient_2" gradientUnits="userSpaceOnUse" x1="523.70825" y1="845.69067" x2="846.82104" y2="524.29077">
			<stop offset="0" stop-color="#447BB2"/>
			<stop offset="1" stop-color="#8EB0B5"/>
		</linearGradient>
	</defs>
	<path fill="url(#gradient_2)" d="M832.77 524.71C835.011 524.339 837.66 524.436 839.934 524.497C845.499 524.649 850.277 526.085 854.165 530.213C854.892 545.422 852.635 561.53 849.925 576.48C840.782 626.909 821.567 674.169 790.862 715.376C746.344 775.122 678.368 822.406 606.536 842.675C586.838 848.233 566.295 851.384 546.065 854.367C540.29 854.958 533.239 856.168 528.43 852.063C524.912 849.06 523.689 844.327 523.312 839.893C522.424 829.419 524.022 817.784 525.023 807.288Q525.299 804.345 525.63 801.407Q525.962 798.47 526.349 795.539Q526.736 792.609 527.178 789.686Q527.62 786.763 528.117 783.849Q528.615 780.935 529.167 778.031Q529.719 775.127 530.326 772.234Q530.933 769.341 531.595 766.46Q532.256 763.579 532.972 760.711Q533.688 757.843 534.458 754.989Q535.228 752.135 536.052 749.296Q536.875 746.457 537.753 743.634Q538.63 740.811 539.56 738.005Q540.49 735.199 541.473 732.411Q542.457 729.624 543.492 726.855Q544.528 724.086 545.616 721.337Q546.703 718.589 547.843 715.861Q548.982 713.133 550.173 710.428Q551.364 707.722 552.605 705.04Q553.847 702.357 555.139 699.698Q556.431 697.039 557.773 694.406Q559.116 691.772 560.507 689.164Q561.899 686.556 563.339 683.975Q564.78 681.393 566.269 678.84Q567.758 676.286 569.295 673.761Q570.832 671.236 572.417 668.74Q574.001 666.245 575.633 663.78Q577.264 661.315 578.942 658.881Q580.619 656.447 582.343 654.045Q584.066 651.643 585.834 649.274Q587.603 646.906 589.415 644.571Q591.228 642.236 593.085 639.935Q594.941 637.635 596.841 635.37Q598.702 633.133 600.606 630.933Q602.51 628.732 604.456 626.569Q606.403 624.406 608.391 622.281Q610.379 620.156 612.408 618.07Q614.436 615.984 616.505 613.938Q618.574 611.892 620.682 609.886Q622.791 607.881 624.937 605.917Q627.084 603.952 629.269 602.03Q631.453 600.108 633.674 598.228Q635.896 596.348 638.153 594.512Q640.411 592.676 642.703 590.884Q644.996 589.092 647.323 587.345Q649.65 585.598 652.01 583.896Q654.37 582.195 656.763 580.539Q659.156 578.884 661.581 577.275Q664.006 575.666 666.461 574.104Q668.917 572.543 671.402 571.03Q673.887 569.516 676.401 568.051Q678.915 566.586 681.457 565.17Q684 563.754 686.569 562.388Q689.138 561.021 691.733 559.705Q694.328 558.389 696.948 557.123Q699.568 555.858 702.213 554.643Q704.857 553.428 707.524 552.265Q710.191 551.102 712.881 549.991Q715.57 548.88 718.281 547.822Q720.991 546.763 723.722 545.757Q726.452 544.751 729.201 543.799Q731.951 542.846 734.718 541.947Q737.486 541.047 740.27 540.202Q743.055 539.357 745.855 538.566Q748.655 537.775 751.47 537.038C778.144 530.222 805.388 527.023 832.77 524.71Z"/>
</svg>
